<?xml version="1.0" encoding="iso-8859-1"?>
<!-- Generator: Adobe Illustrator 19.0.0, SVG Export Plug-In . SVG Version: 6.00 Build 0)  -->
<svg version="1.1" id="Layer_1" xmlns="http://www.w3.org/2000/svg" xmlns:xlink="http://www.w3.org/1999/xlink" x="0px" y="0px"
	 viewBox="0 0 512 512" style="enable-background:new 0 0 512 512;" xml:space="preserve">
<path style="fill:#2980BA;" d="M251.683,33.091C128.514,35.455,24.454,140.206,34.59,272.258
	c9.893,126.69,125.683,219.504,251.817,201.838c107.305-15.284,190.485-107.593,190.485-219.441
	C476.892,130.735,374.743,31.07,251.683,33.091z"/>
<path style="fill:#27729B;" d="M313.899,468.362c-10.073,1.427-20.367,2.171-30.834,2.171
	c-120.335,0-217.888-97.551-217.888-217.887c0-123.77,101.131-217.109,215.965-218.074c-9.655-1.131-19.486-1.645-29.459-1.481
	C128.514,35.456,24.454,140.206,34.59,272.258c9.892,126.69,125.683,219.504,251.817,201.838
	C295.769,472.763,304.943,470.83,313.899,468.362z"/>
<path style="fill:#3B98CC;" d="M293.343,36.354c-84.504,133.552-27.96,313.445,119.994,373.421
	c39.257-39.957,63.554-94.681,63.554-155.12C476.892,145.043,396.964,54.425,293.343,36.354z"/>
<path style="fill:#42A4DB;" d="M256.001,0c-141.386,0-256,114.613-256,255.999c0,141.384,114.614,256.001,256,256.001
	c141.105,0,255.998-114.347,255.998-256.001C511.999,114.613,397.384,0,256.001,0z M256.001,473.886
	c-120.337,0-217.885-97.55-217.885-217.886c0-120.334,97.548-217.886,217.885-217.886c119.701,0,217.888,96.951,217.888,217.886
	C473.89,376.335,376.336,473.886,256.001,473.886z"/>
<path style="fill:#5DC1ED;" d="M451.046,421.811C574.082,277.219,501.69,50.954,315.086,6.865
	c-9.063,10.616-17.275,21.983-24.524,33.996c44.218,7.05,69,23.725,86.091,33.675c114.458,76.258,130.286,237.209,34.549,334.373
	C423.991,414.249,437.305,418.582,451.046,421.811z"/>
<path style="fill:#D8D8D8;" d="M359.722,261.675c-35.543,48.124-64.408,100.634-86.183,156.874
	c-2.805,7.241-9.774,12.016-17.537,12.016c-7.766,0-14.738-4.774-17.539-12.016c-32.028-82.726-79.401-157.38-140.803-221.882
	c-5.685-5.971-6.818-14.944-2.798-22.14c4.021-7.194,12.254-10.939,20.322-9.223c91.086,19.314,187.436,19.975,281.634,0
	c17.979-3.824,30.248,17.998,17.524,31.364c-13.186,13.854-25.726,28.175-37.604,42.946 M160.742,211.307
	c38.179,46.642,70.055,97.59,95.259,152.25c25.2-54.663,57.078-105.61,95.258-152.25
	C288.176,219.749,223.829,219.751,160.742,211.307z"/>
<path style="fill:#F4F4F4;" d="M396.816,165.304c-46.649,9.892-94.665,14.875-142.769,14.727c0.354,12.788,1.647,25.34,3.812,37.592
	c31.239-0.078,62.471-2.176,93.401-6.316c-23.285,28.445-44.212,58.5-62.725,90.013c7.021,12.05,14.983,23.484,23.81,34.18
	c27.593-49.892,61.507-96.296,101.995-138.832C427.065,183.301,414.792,161.481,396.816,165.304z"/>
<g>
</g>
<g>
</g>
<g>
</g>
<g>
</g>
<g>
</g>
<g>
</g>
<g>
</g>
<g>
</g>
<g>
</g>
<g>
</g>
<g>
</g>
<g>
</g>
<g>
</g>
<g>
</g>
<g>
</g>
</svg>
