<?xml version="1.0" encoding="iso-8859-1"?>
<!-- Generator: Adobe Illustrator 19.0.0, SVG Export Plug-In . SVG Version: 6.00 Build 0)  -->
<svg version="1.1" id="Layer_1" xmlns="http://www.w3.org/2000/svg" xmlns:xlink="http://www.w3.org/1999/xlink" x="0px" y="0px"
	 viewBox="0 0 512 512" style="enable-background:new 0 0 512 512;" xml:space="preserve">
<path style="fill:#76B8E5;" d="M378.136,71.574L355.043,58.13c-29.92-15.076-63.726-23.57-99.511-23.57
	c-122.287,0-221.418,99.132-221.418,221.419c0,122.285,99.132,221.416,221.418,221.416c122.288,0,221.418-99.131,221.418-221.416
	C476.949,179.034,437.701,111.26,378.136,71.574z"/>
<path style="fill:#4B9CC9;" d="M279.824,472.077c-120.336,0-217.885-97.549-217.885-217.885
	c0-125.242,103.547-219.318,220.062-218.064c-8.679-1.035-17.513-1.567-26.47-1.567C133.245,34.56,34.113,133.691,34.113,255.979
	c0,122.285,99.132,221.416,221.418,221.416c20.79,0,40.909-2.872,59.987-8.229C303.904,471.08,291.981,472.077,279.824,472.077z"/>
<path style="fill:#80C6ED;" d="M413.782,410.82c39.072-39.926,63.167-94.565,63.167-154.841c0-76.945-39.248-144.719-98.813-184.404
	L355.043,58.13c-19.961-10.058-41.656-17.166-64.508-20.796C206.52,171.461,263.994,351.899,413.782,410.82z"/>
<path style="fill:#F9AF2B;" d="M256.001,0.002C114.617,0.002,0,114.615,0,255.998c0,141.388,114.617,256,256.001,256
	c141.036,0,255.999-114.28,255.999-256C512,114.615,397.387,0.002,256.001,0.002z M256.001,473.885
	c-120.336,0-217.885-97.55-217.885-217.887c0-120.331,97.549-217.881,217.885-217.881c119.036,0,217.885,96.398,217.885,217.881
	C473.887,376.335,376.335,473.885,256.001,473.885z"/>
<path style="fill:#FCC16B;" d="M450.683,422.236c124.213-145.327,50.311-372.92-137.44-415.803
	c-9.123,10.645-17.399,22.042-24.697,34.099c104.265,15.617,185.341,105.58,185.341,215.466c0,59.912-24.185,114.165-63.315,153.556
	C423.453,414.834,436.854,419.097,450.683,422.236z"/>
<g>
	<path style="fill:#F9AF2B;" d="M275.927,105.317c0,11.006-8.92,19.927-19.924,19.927c-11.008,0-19.928-8.921-19.928-19.927
		s8.92-19.927,19.928-19.927C267.007,85.39,275.927,94.311,275.927,105.317z"/>
	<path style="fill:#F9AF2B;" d="M275.927,406.684c0,11.009-8.92,19.927-19.924,19.927c-11.008,0-19.928-8.918-19.928-19.927
		c0-11.004,8.92-19.923,19.928-19.923C267.007,386.761,275.927,395.68,275.927,406.684z"/>
	<path style="fill:#F9AF2B;" d="M163.542,135.361c7.78,7.785,7.78,20.399,0,28.181c-7.782,7.78-20.397,7.78-28.181,0
		c-7.782-7.782-7.78-20.396,0-28.181C143.145,127.578,155.758,127.578,163.542,135.361z"/>
</g>
<circle style="fill:#FCC16B;" cx="362.548" cy="362.548" r="19.927"/>
<path style="fill:#F9AF2B;" d="M105.314,236.074c11.006,0,19.926,8.922,19.93,19.926c0,11.008-8.924,19.93-19.93,19.93
	S85.392,267.008,85.392,256C85.392,244.996,94.308,236.074,105.314,236.074z"/>
<circle style="fill:#FCC16B;" cx="406.688" cy="256.005" r="19.928"/>
<circle style="fill:#F9AF2B;" cx="149.452" cy="362.548" r="19.927"/>
<path style="fill:#FCC16B;" d="M348.463,135.361c7.782-7.781,20.397-7.781,28.177,0c7.782,7.785,7.782,20.399,0,28.181
	c-7.78,7.782-20.395,7.78-28.177-0.002C340.68,155.758,340.678,143.146,348.463,135.361z"/>
<path style="fill:#F9AF2B;" d="M338.528,202.895l-17.698-20.556c-62.874-55.378-162.955-11.021-162.955,73.659
	c0,54.196,43.932,98.13,98.126,98.13C333.807,354.129,380.356,267.761,338.528,202.895z M256.001,315.657
	c-32.949,0-59.658-26.709-59.658-59.659c0-32.945,26.709-59.656,59.658-59.656s59.656,26.711,59.656,59.656
	C315.657,288.948,288.95,315.657,256.001,315.657z"/>
<path style="fill:#FCC16B;" d="M338.528,202.895l-17.698-20.556c-18.608-16.389-42.918-25.388-68.66-24.379
	c-0.724,12.449-0.589,24.865,0.654,38.47c34.135-1.835,62.832,25.38,62.832,59.568c0,20.768-10.616,39.048-26.711,49.733
	c6.702,10.997,14.219,21.441,22.455,31.264C355.829,306.549,366.894,246.884,338.528,202.895z"/>
<g>
</g>
<g>
</g>
<g>
</g>
<g>
</g>
<g>
</g>
<g>
</g>
<g>
</g>
<g>
</g>
<g>
</g>
<g>
</g>
<g>
</g>
<g>
</g>
<g>
</g>
<g>
</g>
<g>
</g>
</svg>
