<?xml version="1.0" encoding="iso-8859-1"?>
<!-- Generator: Adobe Illustrator 19.0.0, SVG Export Plug-In . SVG Version: 6.00 Build 0)  -->
<svg version="1.1" id="Layer_1" xmlns="http://www.w3.org/2000/svg" xmlns:xlink="http://www.w3.org/1999/xlink" x="0px" y="0px"
	 viewBox="0 0 512 512" style="enable-background:new 0 0 512 512;" xml:space="preserve">
<path style="fill:#BF6F47;" d="M479.769,255.544c-0.37-126.742-104.757-225.442-227.305-223.093
	C125.406,34.54,23.128,142.97,33.336,273.855c9.922,128.905,127.444,221.696,254.034,203.746
	C396.57,462.369,479.961,368.62,479.769,255.544z"/>
<path style="fill:#A3522F;" d="M319.701,41.546c-21.367-6.338-43.973-9.541-67.238-9.095
	C125.406,34.54,23.128,142.97,33.336,273.855c9.922,128.905,127.444,221.696,254.034,203.746c12.641-1.763,24.93-4.591,36.789-8.366
	c-14.121,2.877-28.737,4.395-43.708,4.395c-120.271,0-217.767-97.499-217.767-217.767C62.683,117.508,189.088,17.223,319.701,41.546
	z"/>
<path style="fill:#CC7752;" d="M294.36,35.636c-87.788,134.893-29.822,318.38,121.256,377.299
	c39.801-40.507,64.256-96.106,64.152-157.39C479.442,143.548,397.889,53.466,294.36,35.636z"/>
<path style="fill:#D89068;" d="M341.44,251.6c-7.282-11.13-16.676-20.758-27.612-28.309c26.679-18.422,44.196-49.201,44.196-84.003
	c0-9.951-8.069-18.02-18.021-18.02s-18.02,8.067-18.02,18.02c0,36.383-29.601,65.984-65.984,65.984
	c-36.384,0-65.984-29.6-65.984-65.984c0-9.951-8.069-18.02-18.021-18.02c-9.952,0-18.021,8.067-18.021,18.02
	c0,34.802,17.521,65.581,44.198,84.003c-26.679,18.421-44.198,49.201-44.198,84.001c0,56.255,45.769,102.022,102.024,102.022
	c68.759,0,118.171-67.119,97.247-132.893 M256.001,373.278c-36.384,0-65.984-29.6-65.984-65.985
	c0-36.383,29.599-65.982,65.984-65.982c36.382,0,65.984,29.598,65.984,65.982C321.984,343.678,292.383,373.278,256.001,373.278z"/>
<path style="fill:#E5A17F;" d="M358.023,139.288c0-9.951-8.069-18.02-18.021-18.02s-18.02,8.067-18.02,18.02
	c0,36.706-30.16,66.576-67.04,65.957c1.472,12.412,3.832,24.548,7.017,36.349c47.481,4.273,75.092,56.457,51.475,98.117
	c7.968,9.429,16.604,18.275,25.84,26.458c18.796-26.508,23.489-59.834,13.973-89.748L341.44,251.6
	c-7.282-11.13-16.676-20.758-27.612-28.309C340.506,204.871,358.023,174.09,358.023,139.288z"/>
<path style="fill:#D89068;" d="M256.001,0C114.692,0,0.139,114.553,0.139,255.861c0,193.124,205.904,315.719,375.096,226.439
	l22.855-13.624c68.604-45.895,113.771-124.079,113.771-212.815C511.861,114.553,397.309,0,256.001,0z M256.001,473.628
	c-120.272,0-217.766-97.499-217.766-217.767c0-162.591,171.778-267.085,315.638-194.588l22.712,13.226
	c58.586,39.029,97.184,105.687,97.184,181.362C473.768,376.129,376.27,473.628,256.001,473.628z"/>
<path style="fill:#E5A17F;" d="M409.595,410.227c12.773,5.423,26.081,9.826,39.82,13.133
	C574.101,279.505,502.922,52.356,316.426,7.196c-9.168,10.548-17.478,21.857-24.84,33.814
	c102.83,16.912,182.181,106.195,182.181,214.851C473.768,316.192,449.23,370.789,409.595,410.227z"/>
<g>
</g>
<g>
</g>
<g>
</g>
<g>
</g>
<g>
</g>
<g>
</g>
<g>
</g>
<g>
</g>
<g>
</g>
<g>
</g>
<g>
</g>
<g>
</g>
<g>
</g>
<g>
</g>
<g>
</g>
</svg>
