<?xml version="1.0" encoding="iso-8859-1"?>
<!-- Generator: Adobe Illustrator 19.0.0, SVG Export Plug-In . SVG Version: 6.00 Build 0)  -->
<svg version="1.1" id="Layer_1" xmlns="http://www.w3.org/2000/svg" xmlns:xlink="http://www.w3.org/1999/xlink" x="0px" y="0px"
	 viewBox="0 0 512 512" style="enable-background:new 0 0 512 512;" xml:space="preserve">
<path style="fill:#DD910A;" d="M476.186,241.198C468.667,123.356,369.316,31.562,251.17,33.813
	C125.236,35.887,23.624,143.358,33.815,273.316C43.669,401.01,160.113,493.222,285.778,475.39
	C399.001,459.61,483.768,358.809,476.186,241.198z"/>
<path style="fill:#CC7E0E;" d="M328.1,465.15c-15.535,3.516-31.7,5.378-48.298,5.378c-120.334,0-217.883-97.549-217.883-217.882
	c0-122.64,99.287-215.394,212.814-218.018c-7.755-0.679-15.614-0.968-23.563-0.816C125.236,35.887,23.624,143.358,33.815,273.316
	c9.854,127.695,126.298,219.906,251.962,202.073C300.408,473.35,314.557,469.881,328.1,465.15z"/>
<path style="fill:#EA9821;" d="M291.441,36.741c-84.284,133.683-27.566,314.506,122.211,373.834
	c42.211-43.312,66.766-103.721,62.534-169.377C469.54,137.038,391.143,53.243,291.441,36.741z"/>
<path style="fill:#EEC218;" d="M255.993,0.006C114.612,0.006,0,114.616,0,255.999C0,397.38,114.612,511.994,255.993,511.994
	c141.102,0,255.995-114.344,255.995-255.995C511.988,114.616,397.375,0.006,255.993,0.006z M255.993,473.881
	c-120.331,0-217.88-97.548-217.88-217.881c0-120.331,97.549-217.881,217.88-217.881c119.699,0,217.881,96.948,217.881,217.881
	C473.875,376.332,376.325,473.881,255.993,473.881z"/>
<path style="fill:#F9CB38;" d="M450.753,422.135C575.001,276.629,500.675,49.593,313.68,6.532
	c-9.115,10.64-17.375,22.034-24.663,34.082C392.66,56.379,473.875,145.883,473.875,255.999c0,59.83-24.121,114.023-63.163,153.396
	C423.568,414.689,436.945,418.976,450.753,422.135z"/>
<path style="fill:#EEC218;" d="M246.965,228.269c-61.358-35.497-61.447-124.37,0.002-159.912c5.584-3.231,12.467-3.231,18.053,0
	c61.371,35.499,61.447,124.366,0,159.912C259.455,231.49,252.574,231.513,246.965,228.269z M255.993,106.064
	c-25.474,22.489-25.451,62.03,0,84.495C281.473,168.072,281.447,128.53,255.993,106.064z"/>
<path style="fill:#F9CB38;" d="M255.993,190.56c-1.16-1.024-2.259-2.105-3.326-3.217c0.827,14.743,2.89,29.154,6.106,43.125
	c2.17-0.339,4.29-1.064,6.247-2.197c58.047-33.579,62.062-116.102,7.384-155.153c-5.026,11.865-9.174,24.191-12.38,36.892
	C281.815,133.504,279.562,169.759,255.993,190.56z"/>
<g>
	<path style="fill:#EEC218;" d="M265.125,283.733c-5.492-3.174-12.462-3.293-18.16,0c-61.518,35.585-61.259,124.476,0.002,159.913
		c5.589,3.232,12.557,3.238,18.156,0C326.668,408.043,326.367,319.158,265.125,283.733z M256.045,321.487
		c25.39,22.469,25.404,61.925,0,84.4C230.641,383.412,230.655,343.956,256.045,321.487z"/>
	<path style="fill:#EEC218;" d="M68.348,265.03c-3.23-5.584-3.23-12.472,0-18.057c35.497-61.357,124.368-61.449,159.913,0
		c3.231,5.585,3.231,12.471,0,18.057C192.754,326.398,103.901,326.47,68.348,265.03z M106.059,255.999
		c22.475,25.474,62.027,25.458,84.492,0C168.074,230.529,128.522,230.541,106.059,255.999z"/>
</g>
<path style="fill:#F9CB38;" d="M283.723,265.03c-3.23-5.584-3.23-12.472,0-18.057c35.497-61.356,124.371-61.449,159.916,0
	c3.229,5.585,3.229,12.471,0,18.057C408.133,326.396,319.272,326.47,283.723,265.03z M321.432,255.999
	c22.52,25.515,62.078,25.412,84.497,0C383.506,230.583,343.947,230.491,321.432,255.999z"/>
<g>
</g>
<g>
</g>
<g>
</g>
<g>
</g>
<g>
</g>
<g>
</g>
<g>
</g>
<g>
</g>
<g>
</g>
<g>
</g>
<g>
</g>
<g>
</g>
<g>
</g>
<g>
</g>
<g>
</g>
</svg>
