<?xml version="1.0" encoding="iso-8859-1"?>
<!-- Generator: Adobe Illustrator 19.0.0, SVG Export Plug-In . SVG Version: 6.00 Build 0)  -->
<svg version="1.1" id="Layer_1" xmlns="http://www.w3.org/2000/svg" xmlns:xlink="http://www.w3.org/1999/xlink" x="0px" y="0px"
	 viewBox="0 0 511.999 511.999" style="enable-background:new 0 0 511.999 511.999;" xml:space="preserve">
<path style="fill:#26B99A;" d="M256.819,33.513c-122.996,0-222.707,99.71-222.707,222.71c0,122.996,99.711,222.705,222.707,222.705
	c123,0,222.71-99.709,222.71-222.705C479.529,132.407,378.973,33.513,256.819,33.513z"/>
<path style="fill:#1DA081;" d="M325.306,44.288c-21.616-6.99-44.636-10.775-68.488-10.775
	c-122.996,0-222.707,99.711-222.707,222.711c0,122.996,99.711,222.705,222.707,222.705c17.075,0,33.699-1.928,49.673-5.567
	c-9.079,1.153-18.33,1.753-27.721,1.753c-120.331,0-217.881-97.546-217.881-217.877C60.888,116.257,192.088,14.766,325.306,44.288z"
	/>
<path style="fill:#33CCA7;" d="M291.732,36.257C206.15,171.28,265,353.668,416.322,411.627
	c39.105-40.128,63.207-94.948,63.207-155.403C479.529,144.435,397.558,52.975,291.732,36.257z"/>
<path style="fill:#38E5B7;" d="M255.994,0.006C114.612,0.006,0,114.617,0,255.999s114.612,255.994,255.994,255.994
	c140.722,0,255.993-113.989,255.993-255.994C511.987,114.617,397.375,0.006,255.994,0.006z M255.994,473.879
	c-120.333,0-217.879-97.546-217.879-217.879c0-120.331,97.546-217.877,217.879-217.877c119.696,0,217.879,96.947,217.879,217.877
	C473.875,376.332,376.326,473.879,255.994,473.879z"/>
<path style="fill:#51EDC0;" d="M450.754,422.136C574.999,276.634,500.675,49.599,313.677,6.534
	c-9.113,10.642-17.37,22.035-24.659,34.081c103.928,15.799,184.856,105.557,184.856,215.384c0,59.832-24.123,114.022-63.163,153.398
	C423.568,414.689,436.944,418.975,450.754,422.136z"/>
<path style="fill:#38E5B7;" d="M200.429,290.16c0.958,25.988,10.464,49.822,25.796,68.773c11.584-4.937,21.76-12.549,29.758-22.055
	c-8.071-9.598-13.919-21.122-16.743-33.772C225.365,301.095,212.279,296.627,200.429,290.16z"/>
<path style="fill:#4BEFC0;" d="M407.725,213.172c-57.959-72.413-172.89-51.224-201.627,36.45
	c9.67,7.831,21.205,13.443,33.831,16.048c8.94-34.083,40.001-59.299,76.846-59.299c43.806,0,79.443,35.636,79.443,79.441
	c0,56.674-58.115,95.415-110.475,73.128c-8.345,10.312-18.408,19.177-29.756,26.152c17.705,10.88,38.527,17.167,60.788,17.167
	c86.143,0,142.953-91.102,104.172-168.461"/>
<path style="fill:#67F4C8;" d="M407.725,213.172c-37.978-47.448-105.159-57.488-154.979-24.553
	c0.892,14.617,3.002,28.906,6.246,42.755c49.108-52.122,137.225-17.341,137.225,54.438c0,36.926-25.324,68.043-59.512,76.91
	c10.663,9.621,22.14,18.362,34.318,26.103c56.576-29.922,77.989-99.041,49.924-155.026L407.725,213.172z"/>
<g>
	<path style="fill:#38E5B7;" d="M272.044,265.656c12.623-2.602,24.161-8.204,33.833-16.031
		c-4.456-13.573-11.32-26.066-20.117-36.936c-11.588,4.931-21.764,12.543-29.764,22.052
		C263.458,243.608,269.013,254.124,272.044,265.656z"/>
	<path style="fill:#38E5B7;" d="M272.737,303.097c-7.913,35.517-39.655,62.16-77.524,62.16c-43.804,0-79.443-35.638-79.443-79.444
		c0-56.775,58.217-95.379,110.466-73.13c8.345-10.312,18.414-19.175,29.766-26.15c-77.38-47.538-177.232,8.59-177.232,99.28
		c0,64.208,52.235,116.448,116.444,116.448c62.754,0,114.061-49.902,116.354-112.103
		C299.711,296.621,286.619,301.089,272.737,303.097z"/>
</g>
<path style="fill:#64F4C8;" d="M255.994,108.428c37.863,0,69.606,26.637,77.526,62.148c13.88,2.007,26.975,6.473,38.831,12.941
	c-2.301-62.199-53.605-112.094-116.356-112.094c-62.748,0-114.054,49.892-116.354,112.092c11.854-6.467,24.95-10.929,38.833-12.937
	C186.391,135.064,218.132,108.428,255.994,108.428z"/>
<path style="fill:#87F9D3;" d="M272.624,72.613c-4.931,11.571-9.037,23.579-12.238,35.948c35.905,1.97,65.521,27.887,73.134,62.016
	c13.88,2.007,26.975,6.473,38.831,12.941C370.26,126.912,327.577,80.506,272.624,72.613z"/>
<path style="fill:#64F4C8;" d="M332.838,208.02c-8.94,34.075-40.001,59.291-76.844,59.291c-36.846,0-67.908-25.222-76.85-59.301
	c-12.623,2.606-24.157,8.22-33.827,16.054c15.258,46.539,59.1,80.25,110.677,80.25c51.571,0,95.409-33.7,110.673-80.231
	C356.995,216.249,345.465,210.625,332.838,208.02z"/>
<path style="fill:#87F9D3;" d="M269.803,266.105c4.648,11.858,10.152,23.285,16.441,34.201
	c37.925-10.214,68.256-39.131,80.424-76.222c-9.672-7.835-21.202-13.458-33.829-16.064
	C325.04,237.739,300.417,260.717,269.803,266.105z"/>
<g>
</g>
<g>
</g>
<g>
</g>
<g>
</g>
<g>
</g>
<g>
</g>
<g>
</g>
<g>
</g>
<g>
</g>
<g>
</g>
<g>
</g>
<g>
</g>
<g>
</g>
<g>
</g>
<g>
</g>
</svg>
