<?xml version="1.0" encoding="iso-8859-1"?>
<!-- Generator: Adobe Illustrator 19.0.0, SVG Export Plug-In . SVG Version: 6.00 Build 0)  -->
<svg version="1.1" id="Layer_1" xmlns="http://www.w3.org/2000/svg" xmlns:xlink="http://www.w3.org/1999/xlink" x="0px" y="0px"
	 viewBox="0 0 512 512" style="enable-background:new 0 0 512 512;" xml:space="preserve">
<path style="fill:#0F9373;" d="M257.499,34.814c-122.205,0-221.27,99.067-221.27,221.271c0,122.2,99.065,221.267,221.27,221.267
	c122.202,0,221.269-99.067,221.269-221.267C478.767,133.068,378.855,34.814,257.499,34.814z"/>
<path style="fill:#0C7A5D;" d="M281.48,474.862c-120.272,0-217.767-97.496-217.767-217.765
	c0-134.365,119.235-232.835,245.756-216.107c-16.693-4.028-34.096-6.175-51.97-6.175c-122.205,0-221.27,99.067-221.27,221.271
	c0,122.2,99.065,221.267,221.27,221.267c11.942,0,23.658-0.958,35.087-2.78C288.905,474.757,285.206,474.862,281.48,474.862z"/>
<path style="fill:#1E9E7D;" d="M292.559,37.601c-83.763,134.185-26.17,314.117,123.314,372.981
	c38.908-39.879,62.895-94.383,62.895-154.498C478.767,145.151,397.513,54.368,292.559,37.601z"/>
<path style="fill:#26B99A;" d="M256,0C114.693,0,0.139,114.551,0.139,255.86c0,193.123,205.903,315.721,375.095,226.438
	l22.855-13.623C466.691,422.781,511.86,344.596,511.86,255.86C511.859,114.551,397.308,0,256,0z M256,473.627
	c-120.272,0-217.768-97.496-217.768-217.767c0-120.269,97.496-217.765,217.768-217.765c119.634,0,217.766,96.897,217.766,217.765
	C473.766,376.131,376.268,473.627,256,473.627z"/>
<path style="fill:#32CCA7;" d="M450.938,421.581C573.908,277.066,501.555,50.925,315.053,6.864
	c-9.056,10.61-17.264,21.97-24.509,33.978c44.133,7.033,68.875,23.662,86.04,33.657c114.394,76.209,130.214,237.079,34.532,334.19
	C423.898,414.027,437.204,418.36,450.938,421.581z"/>
<path style="fill:#F0C419;" d="M271.484,84.301c-6.964-11.736-24.012-11.761-30.987,0.002l-71.105,119.8
	c-0.531,0.658-1.021,1.354-1.46,2.092l-72.56,122.257c-7.114,11.98,1.537,27.219,15.497,27.219c6.821,0,140.728,0,145.122,0
	c0.008,0,0.013-0.002,0.021,0h145.104c10.022,0,18.039-8.113,18.039-18.023C419.153,330.319,428.148,348.252,271.484,84.301z
	 M255.989,128.803l40.911,68.934h-81.824L255.989,128.803z M142.511,319.631l40.916-68.934l40.912,68.934H142.511z M255.989,302.346
	l-40.699-68.571h81.396L255.989,302.346z M287.639,319.631l40.913-68.934l40.913,68.934H287.639z"/>
<path style="fill:#F9CC3E;" d="M270.306,82.569c-5.845,15.506-10.222,31.729-12.973,48.503l39.567,66.665h-41.741
	c1.195,12.289,3.266,24.317,6.141,36.038h35.387l-22.72,38.284c5.524,13.09,12.118,25.621,19.656,37.489l34.929-58.852
	l40.913,68.934h-69.101c9.111,12.949,19.398,25.01,30.697,36.04c0.098,0,70.074,0,70.074,0c14.352,0,22.912-16.024,15.048-27.934
	C414.855,325.499,271.529,84.164,270.306,82.569z"/>
<g>
</g>
<g>
</g>
<g>
</g>
<g>
</g>
<g>
</g>
<g>
</g>
<g>
</g>
<g>
</g>
<g>
</g>
<g>
</g>
<g>
</g>
<g>
</g>
<g>
</g>
<g>
</g>
<g>
</g>
</svg>
