<?xml version="1.0" encoding="iso-8859-1"?>
<!-- Generator: Adobe Illustrator 19.0.0, SVG Export Plug-In . SVG Version: 6.00 Build 0)  -->
<svg version="1.1" id="Layer_1" xmlns="http://www.w3.org/2000/svg" xmlns:xlink="http://www.w3.org/1999/xlink" x="0px" y="0px"
	 viewBox="0 0 512 512" style="enable-background:new 0 0 512 512;" xml:space="preserve">
<path style="fill:#A5A5A4;" d="M380.081,72.452l-23.092-13.446C210.727-14.698,36.074,91.536,36.074,256.847
	c0,122.282,99.126,221.408,221.408,221.408c122.28,0,221.408-99.126,221.408-221.408
	C478.889,179.905,439.644,112.136,380.081,72.452z"/>
<path style="fill:#8C8C85;" d="M36.074,256.847c0,122.282,99.126,221.408,221.408,221.408c24.587,0,48.234-4.015,70.331-11.412
	c-15.561,3.528-31.754,5.395-48.382,5.395c-120.335,0-217.884-97.549-217.884-217.886c0-124.482,102.255-218.144,217.883-218.078
	C155.426,23.91,36.074,120.191,36.074,256.847z"/>
<path style="fill:#B5B5B5;" d="M416.375,411.016c38.687-39.864,62.515-94.23,62.515-154.169c0-76.941-39.245-144.71-98.809-184.394
	l-23.092-13.446c-21.156-10.66-42.905-17.549-64.634-21.046C208.204,173.177,267.826,353.15,416.375,411.016z"/>
<path style="fill:#C9C9C9;" d="M255.998,0C114.614,0,0,114.612,0,256c0,141.384,114.614,256,255.998,256
	C397.224,512,512,397.536,512,256C512,114.612,397.384,0,255.998,0z M255.998,473.886c-120.333,0-217.882-97.551-217.882-217.886
	c0-120.337,97.549-217.886,217.882-217.886c119.712,0,217.888,96.962,217.888,217.886
	C473.886,376.335,376.335,473.886,255.998,473.886z"/>
<path style="fill:#D6D4D2;" d="M451.042,421.81C574.085,277.22,501.689,50.953,315.084,6.864
	c-9.059,10.62-17.274,21.984-24.521,33.998C394.774,57.469,473.886,147.695,473.886,256c0,59.584-23.928,113.572-62.684,152.908
	C423.988,414.25,437.305,418.585,451.042,421.81z"/>
<path style="fill:#D9DBDB;" d="M176.543,211.939c0-44.202,17.934-84.218,46.921-113.166
	c-68.262,18.245-118.538,80.502-118.538,154.514c0,88.334,71.604,159.94,159.938,159.94c44.126,0,84.081-17.871,113.017-46.772
	C276.127,393.637,176.543,316.846,176.543,211.939z"/>
<path style="fill:#C9C9C9;" d="M130.68,237.556c0-52.409,25.216-98.92,64.169-128.086c-53.238,25.963-89.923,80.602-89.923,143.818
	c0,131.786,150.882,206.608,255.727,128.092C254.589,433.103,130.68,355.576,130.68,237.556z"/>
<g>
</g>
<g>
</g>
<g>
</g>
<g>
</g>
<g>
</g>
<g>
</g>
<g>
</g>
<g>
</g>
<g>
</g>
<g>
</g>
<g>
</g>
<g>
</g>
<g>
</g>
<g>
</g>
<g>
</g>
</svg>
