<?xml version="1.0" encoding="iso-8859-1"?>
<!-- Generator: Adobe Illustrator 19.0.0, SVG Export Plug-In . SVG Version: 6.00 Build 0)  -->
<svg version="1.1" id="Layer_1" xmlns="http://www.w3.org/2000/svg" xmlns:xlink="http://www.w3.org/1999/xlink" x="0px" y="0px"
	 viewBox="0 0 512 512" style="enable-background:new 0 0 512 512;" xml:space="preserve">
<path style="fill:#B7372E;" d="M380.253,69.277l-23.289-13.561C209.47-18.608,33.358,88.525,33.358,255.219
	c0,123.303,99.959,223.264,223.265,223.264c123.307,0,223.267-99.961,223.267-223.264
	C479.889,177.632,440.313,109.291,380.253,69.277z"/>
<path style="fill:#992623;" d="M279.434,475.12c-120.335,0-217.885-97.549-217.885-217.883
	c0-145.527,139.796-248.975,277.307-209.684C195.449-9.798,33.358,95.297,33.358,255.219c0,123.303,99.959,223.264,223.265,223.264
	c15.225,0,30.093-1.53,44.461-4.433C293.962,474.753,286.741,475.12,279.434,475.12z"/>
<path style="fill:#C64542;" d="M416.79,410.742c39.047-40.204,63.1-95.051,63.1-155.522c0-77.587-39.576-145.929-99.637-185.942
	l-23.289-13.561c-20.225-10.192-40.988-16.964-61.761-20.646C209.067,169.453,266.58,351.631,416.79,410.742z"/>
<path style="fill:#D75A4A;" d="M256,0C114.616,0,0.001,114.613,0.001,255.999S114.616,512,256,512
	c141.119,0,255.999-114.357,255.999-256.001C511.999,114.613,397.386,0,256,0z M256,473.884
	c-120.334,0-217.884-97.549-217.884-217.885c0-120.334,97.55-217.883,217.884-217.883c119.704,0,217.885,96.949,217.885,217.883
	C473.885,376.335,376.335,473.884,256,473.884z"/>
<path style="fill:#E56C63;" d="M451.224,421.602C573.843,277.179,501.831,51.677,315.942,7.075
	c-9.03,10.607-17.215,21.951-24.438,33.939c174.285,28.578,242.861,242.408,119.993,367.591
	C424.245,413.978,437.52,418.335,451.224,421.602z"/>
<path style="fill:#D8D8D8;" d="M391.239,353.783c-39.475-58.92-40.61-137.579,0.433-198.267c5.045-7.46,3.915-17.479-2.666-23.627
	c-6.578-6.145-16.652-6.594-23.752-1.052c-64.166,50.069-154.225,50.173-218.524,0c-7.098-5.541-17.171-5.095-23.751,1.052
	c-6.581,6.149-7.711,16.167-2.667,23.627c40.486,59.864,40.635,138.821,0,198.909c-5.044,7.458-3.914,17.479,2.667,23.625
	c6.578,6.145,16.653,6.597,23.751,1.056c64.157-50.078,154.224-50.176,218.523,0c3.18,2.478,7.089,3.87,11.32,3.87
	C391.598,382.948,400.135,365.769,391.239,353.783z M334.642,319.785c-49.027-19.366-106.217-20.179-157.299,0
	c13.285-41.953,13.31-87.602,0-129.628c48.918,19.32,106.091,20.22,157.299,0C321.353,232.113,321.331,277.759,334.642,319.785z"/>
<path style="fill:#F9F9F9;" d="M391.672,155.516c5.045-7.46,3.915-17.479-2.666-23.627c-6.578-6.145-16.652-6.594-23.752-1.052
	c-31.714,24.746-69.934,37.776-110.226,37.526c-0.206,12.038,0.36,23.921,1.95,36.601c27.026-0.119,53.207-5.15,77.664-14.807
	c-13.289,41.955-13.311,87.601,0,129.628c-13.17-5.203-26.844-9.049-40.88-11.524c12.38,19.787,27.38,37.766,44.531,53.431
	c26.601,13.97,27.017,21.285,38.278,21.285c15.025-0.029,23.563-17.208,14.667-29.194
	C351.762,294.861,350.63,216.204,391.672,155.516z"/>
<g>
</g>
<g>
</g>
<g>
</g>
<g>
</g>
<g>
</g>
<g>
</g>
<g>
</g>
<g>
</g>
<g>
</g>
<g>
</g>
<g>
</g>
<g>
</g>
<g>
</g>
<g>
</g>
<g>
</g>
</svg>
